<?xml version="1.0" standalone="no"?>
<!DOCTYPE svg PUBLIC "-//W3C//DTD SVG 20010904//EN"
 "http://www.w3.org/TR/2001/REC-SVG-20010904/DTD/svg10.dtd">
<svg version="1.0" xmlns="http://www.w3.org/2000/svg"
 width="612.000000pt" height="408.000000pt" viewBox="0 0 612.000000 408.000000"
 preserveAspectRatio="xMidYMid meet">

<g transform="translate(0.000000,408.000000) scale(0.100000,-0.100000)"
fill="#095f29" stroke="none">
<path d="M1345 2961 c-106 -26 -155 -44 -243 -91 -226 -122 -382 -317 -454
-567 -19 -66 -23 -102 -23 -233 0 -149 2 -158 33 -250 87 -251 256 -438 496
-551 135 -63 219 -81 401 -86 148 -4 168 -2 260 21 340 88 598 337 685 662 17
62 21 107 21 214 0 158 -19 248 -81 378 -116 244 -329 418 -598 489 -135 35
-378 42 -497 14z m373 -207 c213 -44 399 -182 499 -370 43 -82 80 -202 66
-214 -98 -83 -196 -139 -316 -179 -48 -16 -114 -44 -147 -62 -72 -38 -158
-127 -194 -201 -31 -63 -69 -207 -64 -244 3 -25 7 -22 133 67 72 50 163 114
202 141 40 26 99 69 130 95 55 45 57 46 37 14 -54 -84 -148 -164 -369 -311
-77 -51 -143 -98 -147 -104 -5 -7 -72 53 -174 157 -92 92 -164 170 -161 174 9
9 136 -91 232 -181 44 -41 81 -73 83 -72 8 9 -32 137 -63 201 -65 136 -148
198 -323 239 -181 42 -172 41 -172 14 0 -34 38 -174 62 -231 11 -26 19 -50 16
-52 -10 -10 -100 116 -133 187 -82 172 -82 344 1 525 137 303 475 475 802 407z"/>
<path d="M2700 2000 l0 -281 58 3 57 3 3 108 3 107 119 0 120 0 0 50 0 50
-120 0 -120 0 0 70 0 70 130 0 130 0 0 50 0 50 -190 0 -190 0 0 -280z"/>
<path d="M3285 2261 c-50 -22 -101 -79 -115 -129 -7 -22 -10 -87 -8 -159 3
-116 4 -123 33 -164 44 -62 107 -92 198 -93 62 0 80 4 120 27 26 16 60 47 75
69 25 38 27 50 30 162 4 138 -5 181 -51 233 -44 50 -98 73 -177 73 -42 0 -79
-7 -105 -19z m168 -93 c33 -17 47 -71 47 -178 0 -142 -23 -180 -107 -180 -45
0 -77 20 -98 60 -22 43 -21 214 3 260 26 53 93 70 155 38z"/>
<path d="M3730 2269 c0 -8 -1 -133 -1 -279 l-1 -265 56 -3 56 -3 0 101 0 101
46 -3 46 -3 51 -97 52 -98 62 0 c35 0 63 2 63 5 0 7 -79 154 -97 180 -17 25
-17 45 0 45 15 0 59 45 76 77 19 37 13 121 -11 164 -36 65 -86 82 -255 87
-117 4 -143 2 -143 -9z m280 -109 c24 -24 27 -87 6 -115 -12 -16 -29 -20 -95
-23 l-81 -4 0 81 0 81 75 0 c62 0 79 -4 95 -20z"/>
<path d="M4420 2277 c0 -2 -45 -126 -100 -277 -55 -151 -100 -275 -100 -277 0
-2 26 -3 59 -3 l58 0 18 55 c16 51 19 55 48 56 47 1 140 1 154 0 6 -1 19 -24
28 -52 10 -28 23 -53 30 -55 7 -3 35 -4 63 -2 l50 3 -79 210 c-44 116 -91 240
-105 278 l-26 67 -49 0 c-27 0 -49 -1 -49 -3z m84 -241 c14 -46 26 -89 26 -95
0 -7 -23 -11 -60 -11 -33 0 -60 4 -60 8 0 7 37 121 55 170 8 22 14 13 39 -72z"/>
<path d="M4800 2000 l0 -280 55 0 55 0 0 160 c0 88 3 160 8 159 4 0 30 -46 57
-102 l51 -102 45 -3 45 -3 54 105 55 105 3 -160 3 -160 57 3 57 3 0 275 0 275
-57 3 -57 3 -76 -152 c-51 -100 -80 -148 -86 -142 -6 6 -43 73 -82 149 l-72
139 -58 3 -57 3 0 -281z"/>
<path d="M5527 2018 c-52 -145 -99 -271 -102 -280 -6 -16 0 -18 53 -18 l61 0
17 55 18 56 100 -3 101 -3 19 -52 19 -53 59 0 c53 0 60 2 55 18 -3 9 -49 135
-104 279 l-98 263 -51 0 -51 0 -96 -262z m182 15 c12 -40 24 -79 27 -88 5 -13
-5 -15 -61 -15 -50 0 -66 3 -63 13 3 6 15 44 27 82 13 39 25 76 27 84 7 23 20
1 43 -76z"/>
</g>
</svg>
